<svg xmlns="http://www.w3.org/2000/svg" width="1024" height="1024" viewBox="0 0 1024 1024">
  <defs>
    <linearGradient id="grad" x1="0%" y1="0%" x2="100%" y2="100%">
      <stop offset="0%" style="stop-color:#667eea;stop-opacity:1" />
      <stop offset="100%" style="stop-color:#764ba2;stop-opacity:1" />
    </linearGradient>
  </defs>
  <rect width="1024" height="1024" rx="200" fill="url(#grad)"/>
  <path d="M300 350 Q300 250 400 250 L624 250 Q724 250 724 350 L724 450 Q724 500 674 500 L562 500 L480 580 L480 500 Q480 500 480 500 L400 500 Q300 500 300 450 Z" fill="white" opacity="0.9"/>
  <path d="M300 524 Q300 474 350 474 L462 474 L500 534 L538 474 L674 474 Q724 474 724 524 L724 774 Q724 824 674 824 L350 824 Q300 824 300 774 Z" fill="white" opacity="0.7"/>
  <circle cx="450" cy="650" r="30" fill="white"/>
  <circle cx="512" cy="650" r="30" fill="white"/>
  <circle cx="574" cy="650" r="30" fill="white"/>
</svg>
